<svg preserveAspectRatio="xMinYMid meet" overflow="visible" viewBox="0 0 281.488 72.2803" fill="none" xmlns="http://www.w3.org/2000/svg">
<path id="Union" d="M202.511 53.873C204.385 53.873 205.886 54.698 206.738 56.123V54.123H209.688V66.0791H209.686C209.685 70.4298 207.185 72.2803 203.409 72.2803C200.083 72.2802 197.955 70.7279 197.458 68.0791H200.436C200.812 69.2301 201.635 69.9297 203.412 69.9297C205.437 69.9296 206.738 68.98 206.738 66.5518V65C205.889 66.4495 204.388 67.251 202.511 67.251C199.335 67.2508 196.708 64.8765 196.708 60.5498C196.708 56.2231 199.335 53.8732 202.511 53.873ZM50.1475 67.1992H37.3545V60.248C34.2027 65.6234 28.085 68.4043 21.6904 68.4043C9.45492 68.4042 0 58.6717 0 42.3594C2.33836e-05 26.0471 9.45494 16.3126 21.6904 16.3125C28.0852 16.3125 34.2028 19.0931 37.3545 24.4688V0H50.1475V67.1992ZM129.933 67.1992H126.318V56.5391C123.258 63.8616 116.678 68.4043 108.336 68.4043C96.5656 68.4043 87.2023 59.043 87.2021 42.4512C87.2021 25.8591 96.5628 16.498 108.336 16.498C116.678 16.4981 123.258 21.0397 126.318 28.3623V0H129.933V67.1992ZM215.191 61.7275C215.191 63.7524 215.442 65.4541 217.744 65.4541C219.745 65.4539 220.768 64.1287 220.769 61.4023V54.125H223.771V67.582H220.769V65.6807H220.767C219.992 66.9822 218.816 67.9072 216.665 67.9072C213.363 67.9071 212.215 65.8305 212.215 62.5283V54.125H215.191V61.7275ZM169.096 53.7939C172.847 53.7939 174.772 55.4935 174.772 59.3955V62.4209C174.772 64.521 174.896 66.3229 175.146 67.5732H172.147C172.048 66.9248 171.997 66.3776 171.997 65.8037C171.096 67.2045 169.623 67.9033 167.421 67.9033C164.896 67.9033 162.793 66.4544 162.793 64.002C162.793 60.775 166.42 59.7744 171.847 59.25V58.9492C171.847 56.849 170.671 56.0713 169.071 56.0713C167.471 56.0714 166.396 56.9215 166.27 58.4219H163.344C163.57 55.6467 165.82 53.794 169.096 53.7939ZM188.927 53.8203C192.302 53.8203 195.655 55.9713 195.655 60.8467C195.655 65.7221 192.28 67.9004 188.927 67.9004C185.573 67.9004 182.175 65.7248 182.175 60.8467C182.175 55.9686 185.552 53.8203 188.927 53.8203ZM155.371 67.5762H152.394V65.623C151.544 67.0724 149.993 67.8983 148.092 67.8984C144.865 67.8984 142.264 65.2982 142.264 60.8721C142.264 56.4457 144.865 53.8691 148.092 53.8691C149.993 53.8693 151.541 54.695 152.394 56.1201V49.4424H155.371V67.5762ZM232.37 53.8145C236.396 53.8145 238.924 56.915 238.924 61.0186C238.924 61.2176 238.924 61.4198 238.899 61.6699H228.646C228.947 64.4206 230.722 65.4453 232.448 65.4453C234.274 65.4453 235.325 64.6706 235.874 63.5439H238.773C237.924 66.1953 235.546 67.8944 232.497 67.8945C228.195 67.8945 225.594 64.9935 225.594 60.8174C225.594 56.6412 228.595 53.8146 232.37 53.8145ZM172.148 67.5781L172.146 67.5732H172.147C172.148 67.5749 172.148 67.5765 172.148 67.5781ZM161.045 67.5762H158.068V54.1191H161.045V67.5762ZM180.327 67.5762H177.35V49.4424H180.327V67.5762ZM88.5898 7.04492H84.4189C80.0625 7.04492 79.2282 8.0648 78.0234 13.2549L77.0957 17.334H86.457L85.0664 24.0996H75.6113L66.4365 67.2021H58L67.1758 24.0996H60.3154L61.7061 17.334H68.5664L69.3994 13.626C71.7175 3.33725 74.4984 0 85.7148 0H90.0713L88.5898 7.04492ZM171.974 61.2988C168.322 61.6484 165.971 62.1735 165.971 63.8516C165.971 64.978 166.896 65.7284 168.297 65.7285C170.246 65.7285 171.973 64.8517 171.974 61.9531V61.2988ZM148.968 56.2949C146.892 56.295 145.442 57.9464 145.442 60.8721C145.442 63.7976 146.892 65.4725 148.968 65.4727C150.842 65.4727 152.52 64.123 152.521 60.8721C152.521 57.6209 150.845 56.2949 148.968 56.2949ZM188.93 56.2939C187.055 56.2939 185.302 57.5687 185.302 60.8467C185.302 64.1248 187.002 65.4482 188.93 65.4482C190.858 65.4481 192.53 64.1462 192.53 60.8467C192.53 57.5715 190.804 56.294 188.93 56.2939ZM108.801 19.835C98.9748 19.8351 91.0039 27.8062 91.0039 42.4512C91.0041 57.0959 98.9749 65.0662 108.801 65.0664C117.419 65.0664 126.689 58.7633 126.689 42.4512C126.689 26.2302 117.42 19.835 108.801 19.835ZM203.358 56.2979C201.358 56.2979 199.881 57.7746 199.881 60.5498C199.881 63.325 201.358 64.8525 203.358 64.8525C205.233 64.8525 206.859 63.6771 206.859 60.5498C206.859 57.4493 205.235 56.2979 203.358 56.2979ZM232.37 56.2402C230.77 56.2403 229.095 56.9904 228.694 59.542H235.848C235.697 57.5925 234.371 56.2402 232.37 56.2402ZM25.6758 26.5098C18.6303 26.5099 13.3487 32.0708 13.3486 42.3594C13.3486 52.648 18.633 58.2089 25.6758 58.209C32.2561 58.209 38.0029 53.6673 38.0029 42.3594C38.0029 30.9574 32.2561 26.5098 25.6758 26.5098ZM161.045 52.3926H158.068V49.4424H161.045V52.3926ZM168.754 28.5938C170.628 28.5938 172.129 29.4186 172.981 30.8438V28.8438H175.931V40.7998H175.929C175.929 45.1506 173.427 47.001 169.651 47.001C166.325 47.0008 164.201 45.4485 163.701 42.7998H166.678C167.052 43.9507 167.877 44.6503 169.654 44.6504C171.679 44.6504 172.981 43.7008 172.981 41.2725V39.7207C172.132 41.1701 170.631 41.9716 168.754 41.9717C165.578 41.9717 162.95 39.5947 162.95 35.2705C162.95 30.9463 165.578 28.5938 168.754 28.5938ZM197.858 28.5146C201.609 28.5147 203.535 30.2137 203.535 34.1152V37.1406C203.535 39.2406 203.658 41.0425 203.911 42.293H200.91V42.2988C200.811 41.6482 200.76 41.0997 200.76 40.5244C199.859 41.9253 198.382 42.624 196.183 42.624C193.658 42.624 191.555 41.1749 191.555 38.7227C191.555 35.4957 195.18 34.4951 200.609 33.9707V33.6689C200.609 31.569 199.434 30.792 197.834 30.792C196.234 30.792 195.159 31.642 195.032 33.1426H192.106C192.332 30.3674 194.583 28.5146 197.858 28.5146ZM227.145 36.4434C227.145 38.4681 227.396 40.1699 229.697 40.1699C231.698 40.1698 232.723 38.8438 232.723 36.1172V28.8408H235.724V42.2969H232.723V40.3955H232.72C231.945 41.6971 230.769 42.623 228.618 42.623C225.316 42.6229 224.168 40.5463 224.168 37.2441V28.8408H227.145V36.4434ZM249.454 36.4434C249.454 38.468 249.705 40.1697 252.006 40.1699C254.007 40.1699 255.031 38.844 255.031 36.1172V28.8408H258.032V42.2969H255.031V40.3955H255.029C254.255 41.6971 253.079 42.623 250.928 42.623C247.626 42.623 246.478 40.5464 246.478 37.2441V28.8408H249.454V36.4434ZM274.935 28.54C278.96 28.54 281.488 31.6412 281.488 35.7422C281.488 35.9411 281.488 36.1426 281.464 36.3926H271.21C271.511 39.1435 273.286 40.1679 275.013 40.168C276.838 40.168 277.89 39.3941 278.438 38.2676H281.341L281.338 38.2695C280.488 40.921 278.111 42.621 275.062 42.6211C270.759 42.6211 268.158 39.7192 268.158 35.543C268.158 31.3669 271.159 28.5402 274.935 28.54ZM155.371 42.2959H152.394V40.3438C151.544 41.7931 149.993 42.619 148.092 42.6191C144.865 42.6191 142.264 40.0182 142.264 35.5918C142.264 31.1657 144.865 28.5898 148.092 28.5898C149.993 28.59 151.541 29.4157 152.394 30.8408V24.1631H155.371V42.2959ZM188.057 28.8486H190.757V31.0996H188.057V38.3281C188.057 39.6778 188.283 40.0029 189.608 40.0029H190.76V42.3047H188.734L188.731 42.3027C185.881 42.3027 185.08 41.7026 185.08 38.7773V31.0996H182.953V28.8486H185.08V25.3477H188.057V28.8486ZM242.175 28.8486H244.874V31.0996H242.175V38.3281C242.175 39.6778 242.401 40.0029 243.727 40.0029H244.877V42.3047H242.853L242.85 42.3027C239.999 42.3027 239.197 41.7028 239.197 38.7773V31.0996H237.073V28.8486H239.197V25.3477H242.175V28.8486ZM161.045 42.2959H158.068V28.8398H161.045V42.2959ZM181.576 42.2959H178.6V28.8398H181.576V42.2959ZM209.086 42.2959H206.109V24.1631H209.086V42.2959ZM267.356 28.7666C267.555 28.7666 267.781 28.7668 268.007 28.791V31.8164C267.507 31.7412 267.158 31.7168 266.781 31.7168C264.732 31.7168 263.681 32.7176 263.681 35.3691V42.2959H260.703V28.8428H263.604V31.2676C264.255 29.716 265.531 28.8177 267.356 28.7666ZM223.091 26.4385H221.94C220.639 26.4385 220.389 26.6373 220.389 27.8877V28.8369H223.088V31.0879H220.389V42.2939H217.411V31.0908H215.54V28.8398H217.414V27.915C217.414 24.965 218.291 24.1631 221.566 24.1631H223.091V26.4385ZM200.735 36.0195C197.084 36.3691 194.734 36.8963 194.733 38.5713C194.733 39.698 195.659 40.4482 197.06 40.4482C199.009 40.4482 200.735 39.5744 200.735 36.6729V36.0195ZM148.968 31.0156C146.892 31.0157 145.443 32.6664 145.442 35.5918C145.442 38.5175 146.892 40.1932 148.968 40.1934C150.842 40.1934 152.521 38.843 152.521 35.5918C152.52 32.3409 150.845 31.0156 148.968 31.0156ZM169.601 31.0186C167.6 31.0186 166.124 32.4954 166.124 35.2705C166.124 38.0457 167.6 39.5732 169.601 39.5732C171.475 39.5732 173.102 38.398 173.102 35.2705C173.102 32.1699 171.475 31.0186 169.601 31.0186ZM274.935 30.9658C273.335 30.9659 271.659 31.7167 271.259 34.2686H278.412C278.262 32.3189 276.935 30.9658 274.935 30.9658ZM161.045 27.1133H158.068V24.1631H161.045V27.1133ZM181.576 27.1133H178.6V24.1631H181.576V27.1133Z" fill="var(--fill-0, black)"/>
</svg>
